<svg width="24" height="24" viewBox="0 0 24 24" fill="none" xmlns="http://www.w3.org/2000/svg">
<path fill-rule="evenodd" clip-rule="evenodd" d="M4.708 15.4402C5.87877 16.2625 7.27429 16.7045 8.705 16.7062C9.14587 17.9067 9.90721 18.9635 10.9064 19.7618C11.9055 20.5602 13.1043 21.0695 14.3725 21.2346C15.6407 21.3997 16.9299 21.2141 18.1001 20.6981C19.2703 20.1821 20.2768 19.3554 21.0103 18.3077C21.7438 17.2601 22.1762 16.0315 22.2607 14.7553C22.3451 13.4792 22.0783 12.2043 21.4893 11.0691C20.9003 9.93392 20.0115 8.98179 18.9195 8.31611C17.8274 7.65043 16.5739 7.29665 15.295 7.29316C14.9162 6.26199 14.3 5.33446 13.4962 4.58558C12.6925 3.8367 11.7238 3.2875 10.6684 2.9824C9.61309 2.67731 8.50076 2.62488 7.4214 2.82937C6.34205 3.03385 5.32597 3.4895 4.45535 4.15946C3.58474 4.82943 2.88402 5.69489 2.40989 6.68587C1.93576 7.67684 1.70152 8.76549 1.72612 9.86377C1.75072 10.962 2.03346 12.0391 2.55148 13.0079C3.06951 13.9766 3.80826 14.8099 4.708 15.4402ZM5.855 13.8002C6.57332 14.3049 7.41237 14.6105 8.287 14.6862C8.19677 13.1173 8.63938 11.5639 9.543 10.2782C10.4424 8.98955 11.7508 8.04266 13.256 7.59116C12.9316 6.89642 12.4518 6.28559 11.8536 5.80591C11.2555 5.32622 10.555 4.99052 9.80637 4.82478C9.05775 4.65904 8.28104 4.66768 7.5363 4.85005C6.79156 5.03242 6.09873 5.38363 5.5114 5.87651C4.92406 6.3694 4.45795 6.99076 4.14911 7.69255C3.84026 8.39434 3.69695 9.15776 3.73026 9.92378C3.76357 10.6898 3.97261 11.4379 4.34121 12.1102C4.70981 12.7826 5.2281 13.3611 5.856 13.8012L5.855 13.8002ZM18.145 10.1972C17.4266 9.69287 16.5875 9.38754 15.713 9.31216C15.8032 10.8811 15.3606 12.4344 14.457 13.7202C13.5576 15.0088 12.2492 15.9557 10.744 16.4072C11.0684 17.1019 11.5482 17.7127 12.1464 18.1924C12.7445 18.6721 13.445 19.0078 14.1936 19.1735C14.9423 19.3393 15.719 19.3306 16.4637 19.1483C17.2084 18.9659 17.9013 18.6147 18.4886 18.1218C19.0759 17.6289 19.542 17.0076 19.8509 16.3058C20.1597 15.604 20.3031 14.8406 20.2697 14.0745C20.2364 13.3085 20.0274 12.5604 19.6588 11.8881C19.2902 11.2158 18.7719 10.6372 18.144 10.1972H18.145Z" fill="#706E6E"/>
</svg>
